<?xml version="1.0" encoding="UTF-8" standalone="no"?>
<!DOCTYPE svg PUBLIC "-//W3C//DTD SVG 20010904//EN" "http://www.w3.org/TR/2001/REC-SVG-20010904/DTD/svg10.dtd">
<svg version="1.0" xmlns="http://www.w3.org/2000/svg" width="294.000000pt" height="294.000000pt" viewBox="0 0 294.000000 294.000000" preserveAspectRatio="xMidYMid meet">
<metadata>
Created by potrace 1.11, written by Peter Selinger 2001-2013
</metadata>
<g transform="translate(0.000000,294.000000) scale(0.100000,-0.100000)" fill="#000000" stroke="none">
<path d="M1320 2933 c-119 -17 -229 -40 -305 -65 -528 -175 -900 -609 -999 -1163 -14 -79 -15 -388 -2 -445 4 -14 9 -41 12 -60 27 -172 118 -390 233 -558 210 -307 548 -531 913 -606 475 -98 981 52 1323 392 323 320 474 736 432 1187 -41 445 -292 853 -676 1099 -143 90 -352 172 -521 202 -86 15 -347 26 -410 17z m335 -564 c99 -166 190 -318 201 -338 12 -20 93 -153 179 -296 87 -143 163 -269 169 -280 6 -11 31 -52 55 -92 27 -46 44 -87 46 -113 2 -22 0 -40 -3 -40 -4 0 -32 35 -63 78 -380 522 -764 1036 -773 1034 -6 -2 -14 -9 -18 -15 -4 -7 -138 -190 -298 -407 -160 -217 -339 -461 -398 -542 -59 -81 -110 -147 -113 -148 -3 0 -5 19 -3 42 2 35 34 96 181 338 98 163 284 472 413 687 129 216 237 392 240 392 3 0 86 -135 185 -300z m-685 -1201 c52 -16 78 -38 297 -255 l201 -199 215 212 c118 117 227 219 244 227 61 32 143 38 225 16 35 -9 138 -81 138 -97 0 -4 -185 -192 -410 -417 l-410 -410 -412 412 -412 412 24 27 c74 78 189 106 300 72z"/>
</g>
</svg>